<?xml version="1.0" encoding="UTF-8" standalone="no"?>
<!DOCTYPE svg PUBLIC "-//W3C//DTD SVG 1.1//EN"
 "http://www.w3.org/Graphics/SVG/1.1/DTD/svg11.dtd">
<!-- Generated by graphviz version 2.43.0 (0)
 -->
<!-- Title: snakemake_dag Pages: 1 -->
<svg width="1232pt" height="1854pt"
 viewBox="0.00 0.00 1232.00 1854.00" xmlns="http://www.w3.org/2000/svg" xmlns:xlink="http://www.w3.org/1999/xlink">
<g id="graph0" class="graph" transform="scale(1 1) rotate(0) translate(4 1850)">
<title>snakemake_dag</title>
<polygon fill="white" stroke="transparent" points="-4,4 -4,-1850 1228,-1850 1228,4 -4,4"/>
<!-- 0 -->
<g id="node1" class="node">
<title>0</title>
<text text-anchor="start" x="603" y="-71.6" font-family="sans" font-weight="bold" font-size="18.00">all</text>
<text text-anchor="start" x="565.5" y="-47.8" font-family="sans" font-size="10.00"> </text>
<text text-anchor="start" x="568.5" y="-47.8" font-family="sans" font-weight="bold" font-size="14.00">↪ input</text>
<text text-anchor="start" x="623.5" y="-47.8" font-family="sans" font-size="10.00"> </text>
<text text-anchor="start" x="565.5" y="-28" font-family="monospace" font-size="10.00">&lt;input function&gt;</text>
<text text-anchor="start" x="657.5" y="-10" font-family="sans" font-size="10.00"> &#160;</text>
<polygon fill="#d0d957" stroke="#d0d957" points="559.5,-62 559.5,-62 669.5,-62 669.5,-62 559.5,-62"/>
<polygon fill="#d0d957" stroke="#d0d957" points="559.5,-22 559.5,-22 669.5,-22 669.5,-22 559.5,-22"/>
<polygon fill="none" stroke="#d0d957" stroke-width="2" points="559,-1 559,-91 668,-91 668,-1 559,-1"/>
</g>
<!-- 1 -->
<g id="node2" class="node">
<title>1</title>
<text text-anchor="start" x="68.5" y="-221.6" font-family="sans" font-weight="bold" font-size="18.00">plot_neb_1d_path</text>
<text text-anchor="start" x="7.5" y="-197.8" font-family="sans" font-size="10.00"> </text>
<text text-anchor="start" x="10.5" y="-197.8" font-family="sans" font-weight="bold" font-size="14.00">↪ input</text>
<text text-anchor="start" x="65.5" y="-197.8" font-family="sans" font-size="10.00"> </text>
<text text-anchor="start" x="7.5" y="-178" font-family="monospace" font-size="10.00">results/03_neb/{system}/{method}/neb.con</text>
<text text-anchor="start" x="214.5" y="-157.8" font-family="sans" font-size="10.00"> </text>
<text text-anchor="start" x="217.5" y="-157.8" font-family="sans" font-weight="bold" font-size="14.00">output →</text>
<text text-anchor="start" x="281.5" y="-157.8" font-family="sans" font-size="10.00"> </text>
<text text-anchor="start" x="7.5" y="-138" font-family="monospace" font-size="10.00">results/04_plots/{system}/{method}/1D_path.png</text>
<polygon fill="#57bfd9" stroke="#57bfd9" points="1.5,-212 1.5,-212 291.5,-212 291.5,-212 1.5,-212"/>
<polygon fill="#57bfd9" stroke="#57bfd9" points="1.5,-172 1.5,-172 291.5,-172 291.5,-172 1.5,-172"/>
<polygon fill="none" stroke="#57bfd9" stroke-width="2" points="1,-129 1,-241 290,-241 290,-129 1,-129"/>
</g>
<!-- 1&#45;&gt;0 -->
<g id="edge2" class="edge">
<title>1&#45;&gt;0</title>
<path fill="none" stroke="grey" stroke-width="2" d="M291.29,-130.58C294.04,-129.7 296.78,-128.84 299.5,-128 384.36,-101.69 483.92,-77.04 547.8,-62"/>
<polygon fill="grey" stroke="grey" stroke-width="2" points="548.81,-65.36 557.74,-59.67 547.21,-58.54 548.81,-65.36"/>
</g>
<!-- 2 -->
<g id="node3" class="node">
<title>2</title>
<text text-anchor="start" x="582" y="-497.6" font-family="sans" font-weight="bold" font-size="18.00">do_neb</text>
<text text-anchor="start" x="481.5" y="-473.8" font-family="sans" font-size="10.00"> </text>
<text text-anchor="start" x="484.5" y="-473.8" font-family="sans" font-weight="bold" font-size="14.00">↪ input</text>
<text text-anchor="start" x="539.5" y="-473.8" font-family="sans" font-size="10.00"> </text>
<text text-anchor="start" x="481.5" y="-454" font-family="monospace" font-size="10.00">&lt;input function&gt;</text>
<text text-anchor="start" x="481.5" y="-436" font-family="monospace" font-size="10.00">&lt;input function&gt;</text>
<text text-anchor="start" x="481.5" y="-418" font-family="monospace" font-size="10.00">results/00_models/pet&#45;mad&#45;v1.1.0.pt</text>
<text text-anchor="start" x="481.5" y="-400" font-family="monospace" font-size="10.00">results/01_endpoints/{system}/product.con</text>
<text text-anchor="start" x="481.5" y="-382" font-family="monospace" font-size="10.00">results/01_endpoints/{system}/reactant.con</text>
<text text-anchor="start" x="481.5" y="-364" font-family="monospace" font-size="10.00">results/02_idpp/{system}/idppPath.dat</text>
<text text-anchor="start" x="676.5" y="-343.8" font-family="sans" font-size="10.00"> </text>
<text text-anchor="start" x="679.5" y="-343.8" font-family="sans" font-weight="bold" font-size="14.00">output →</text>
<text text-anchor="start" x="743.5" y="-343.8" font-family="sans" font-size="10.00"> </text>
<text text-anchor="start" x="481.5" y="-324" font-family="monospace" font-size="10.00">results/03_neb/{system}/{method}/neb.con</text>
<text text-anchor="start" x="481.5" y="-306" font-family="monospace" font-size="10.00">results/03_neb/{system}/{method}/neb.dat</text>
<text text-anchor="start" x="481.5" y="-288" font-family="monospace" font-size="10.00">results/03_neb/{system}/{method}/results.dat</text>
<polygon fill="#57d968" stroke="#57d968" points="475.5,-488 475.5,-488 753.5,-488 753.5,-488 475.5,-488"/>
<polygon fill="#57d968" stroke="#57d968" points="475.5,-358 475.5,-358 753.5,-358 753.5,-358 475.5,-358"/>
<polygon fill="none" stroke="#57d968" stroke-width="2" points="475,-279 475,-517 752,-517 752,-279 475,-279"/>
</g>
<!-- 2&#45;&gt;1 -->
<g id="edge5" class="edge">
<title>2&#45;&gt;1</title>
<path fill="none" stroke="grey" stroke-width="2" d="M473.72,-333.98C412.1,-306.2 340.03,-273.7 279.14,-246.25"/>
<polygon fill="grey" stroke="grey" stroke-width="2" points="280.41,-242.98 269.85,-242.06 277.53,-249.37 280.41,-242.98"/>
</g>
<!-- 10 -->
<g id="node11" class="node">
<title>10</title>
<text text-anchor="start" x="376.5" y="-221.6" font-family="sans" font-weight="bold" font-size="18.00">plot_neb_1d_index</text>
<text text-anchor="start" x="316.5" y="-197.8" font-family="sans" font-size="10.00"> </text>
<text text-anchor="start" x="319.5" y="-197.8" font-family="sans" font-weight="bold" font-size="14.00">↪ input</text>
<text text-anchor="start" x="374.5" y="-197.8" font-family="sans" font-size="10.00"> </text>
<text text-anchor="start" x="316.5" y="-178" font-family="monospace" font-size="10.00">results/03_neb/{system}/{method}/neb.con</text>
<text text-anchor="start" x="529.5" y="-157.8" font-family="sans" font-size="10.00"> </text>
<text text-anchor="start" x="532.5" y="-157.8" font-family="sans" font-weight="bold" font-size="14.00">output →</text>
<text text-anchor="start" x="596.5" y="-157.8" font-family="sans" font-size="10.00"> </text>
<text text-anchor="start" x="316.5" y="-138" font-family="monospace" font-size="10.00">results/04_plots/{system}/{method}/1D_index.png</text>
<polygon fill="#57d9d0" stroke="#57d9d0" points="310.5,-212 310.5,-212 606.5,-212 606.5,-212 310.5,-212"/>
<polygon fill="#57d9d0" stroke="#57d9d0" points="310.5,-172 310.5,-172 606.5,-172 606.5,-172 310.5,-172"/>
<polygon fill="none" stroke="#57d9d0" stroke-width="2" points="310,-129 310,-241 605,-241 605,-129 310,-129"/>
</g>
<!-- 2&#45;&gt;10 -->
<g id="edge16" class="edge">
<title>2&#45;&gt;10</title>
<path fill="none" stroke="grey" stroke-width="2" d="M525.47,-277.93C518.5,-268.51 511.65,-259.24 505.13,-250.42"/>
<polygon fill="grey" stroke="grey" stroke-width="2" points="507.74,-248.07 498.98,-242.11 502.11,-252.23 507.74,-248.07"/>
</g>
<!-- 11 -->
<g id="node12" class="node">
<title>11</title>
<text text-anchor="start" x="690" y="-221.6" font-family="sans" font-weight="bold" font-size="18.00">plot_neb_1d_rmsd</text>
<text text-anchor="start" x="631.5" y="-197.8" font-family="sans" font-size="10.00"> </text>
<text text-anchor="start" x="634.5" y="-197.8" font-family="sans" font-weight="bold" font-size="14.00">↪ input</text>
<text text-anchor="start" x="689.5" y="-197.8" font-family="sans" font-size="10.00"> </text>
<text text-anchor="start" x="631.5" y="-178" font-family="monospace" font-size="10.00">results/03_neb/{system}/{method}/neb.con</text>
<text text-anchor="start" x="838.5" y="-157.8" font-family="sans" font-size="10.00"> </text>
<text text-anchor="start" x="841.5" y="-157.8" font-family="sans" font-weight="bold" font-size="14.00">output →</text>
<text text-anchor="start" x="905.5" y="-157.8" font-family="sans" font-size="10.00"> </text>
<text text-anchor="start" x="631.5" y="-138" font-family="monospace" font-size="10.00">results/04_plots/{system}/{method}/1D_rmsd.png</text>
<polygon fill="#579cd9" stroke="#579cd9" points="625.5,-212 625.5,-212 915.5,-212 915.5,-212 625.5,-212"/>
<polygon fill="#579cd9" stroke="#579cd9" points="625.5,-172 625.5,-172 915.5,-172 915.5,-172 625.5,-172"/>
<polygon fill="none" stroke="#579cd9" stroke-width="2" points="625,-129 625,-241 914,-241 914,-129 625,-129"/>
</g>
<!-- 2&#45;&gt;11 -->
<g id="edge17" class="edge">
<title>2&#45;&gt;11</title>
<path fill="none" stroke="grey" stroke-width="2" d="M701.53,-277.93C708.5,-268.51 715.35,-259.24 721.87,-250.42"/>
<polygon fill="grey" stroke="grey" stroke-width="2" points="724.89,-252.23 728.02,-242.11 719.26,-248.07 724.89,-252.23"/>
</g>
<!-- 12 -->
<g id="node13" class="node">
<title>12</title>
<text text-anchor="start" x="999" y="-221.6" font-family="sans" font-weight="bold" font-size="18.00">plot_neb_2d_rmsd</text>
<text text-anchor="start" x="940.5" y="-197.8" font-family="sans" font-size="10.00"> </text>
<text text-anchor="start" x="943.5" y="-197.8" font-family="sans" font-weight="bold" font-size="14.00">↪ input</text>
<text text-anchor="start" x="998.5" y="-197.8" font-family="sans" font-size="10.00"> </text>
<text text-anchor="start" x="940.5" y="-178" font-family="monospace" font-size="10.00">results/03_neb/{system}/{method}/neb.con</text>
<text text-anchor="start" x="1147.5" y="-157.8" font-family="sans" font-size="10.00"> </text>
<text text-anchor="start" x="1150.5" y="-157.8" font-family="sans" font-weight="bold" font-size="14.00">output →</text>
<text text-anchor="start" x="1214.5" y="-157.8" font-family="sans" font-size="10.00"> </text>
<text text-anchor="start" x="940.5" y="-138" font-family="monospace" font-size="10.00">results/04_plots/{system}/{method}/2D_rmsd.png</text>
<polygon fill="#5779d9" stroke="#5779d9" points="934.5,-212 934.5,-212 1224.5,-212 1224.5,-212 934.5,-212"/>
<polygon fill="#5779d9" stroke="#5779d9" points="934.5,-172 934.5,-172 1224.5,-172 1224.5,-172 934.5,-172"/>
<polygon fill="none" stroke="#5779d9" stroke-width="2" points="934,-129 934,-241 1223,-241 1223,-129 934,-129"/>
</g>
<!-- 2&#45;&gt;12 -->
<g id="edge18" class="edge">
<title>2&#45;&gt;12</title>
<path fill="none" stroke="grey" stroke-width="2" d="M753.02,-333.69C814.08,-305.98 885.4,-273.62 945.69,-246.27"/>
<polygon fill="grey" stroke="grey" stroke-width="2" points="947.22,-249.41 954.88,-242.09 944.33,-243.04 947.22,-249.41"/>
</g>
<!-- 3 -->
<g id="node4" class="node">
<title>3</title>
<text text-anchor="start" x="580.5" y="-809.6" font-family="sans" font-weight="bold" font-size="18.00">__ase_idpp_collect_paths</text>
<text text-anchor="start" x="576.5" y="-785.8" font-family="sans" font-size="10.00"> </text>
<text text-anchor="start" x="579.5" y="-785.8" font-family="sans" font-weight="bold" font-size="14.00">↪ input</text>
<text text-anchor="start" x="634.5" y="-785.8" font-family="sans" font-size="10.00"> </text>
<text text-anchor="start" x="576.5" y="-766" font-family="monospace" font-size="10.00">results/02_idpp/{system}/path/00.con</text>
<text text-anchor="start" x="576.5" y="-748" font-family="monospace" font-size="10.00">results/02_idpp/{system}/path/01.con</text>
<text text-anchor="start" x="576.5" y="-730" font-family="monospace" font-size="10.00">results/02_idpp/{system}/path/02.con</text>
<text text-anchor="start" x="576.5" y="-712" font-family="monospace" font-size="10.00">results/02_idpp/{system}/path/03.con</text>
<text text-anchor="start" x="576.5" y="-694" font-family="monospace" font-size="10.00">results/02_idpp/{system}/path/04.con</text>
<text text-anchor="start" x="576.5" y="-676" font-family="monospace" font-size="10.00">results/02_idpp/{system}/path/05.con</text>
<text text-anchor="start" x="576.5" y="-658" font-family="monospace" font-size="10.00">results/02_idpp/{system}/path/06.con</text>
<text text-anchor="start" x="576.5" y="-640" font-family="monospace" font-size="10.00">results/02_idpp/{system}/path/07.con</text>
<text text-anchor="start" x="576.5" y="-622" font-family="monospace" font-size="10.00">results/02_idpp/{system}/path/08.con</text>
<text text-anchor="start" x="576.5" y="-604" font-family="monospace" font-size="10.00">results/02_idpp/{system}/path/09.con</text>
<text text-anchor="start" x="729.5" y="-583.8" font-family="sans" font-size="10.00"> </text>
<text text-anchor="start" x="732.5" y="-583.8" font-family="sans" font-weight="bold" font-size="14.00">output →</text>
<text text-anchor="start" x="796.5" y="-583.8" font-family="sans" font-size="10.00"> </text>
<text text-anchor="start" x="576.5" y="-564" font-family="monospace" font-size="10.00">results/02_idpp/{system}/idppPath.dat</text>
<polygon fill="#d95757" stroke="#d95757" points="570.5,-800 570.5,-800 806.5,-800 806.5,-800 570.5,-800"/>
<polygon fill="#d95757" stroke="#d95757" points="570.5,-598 570.5,-598 806.5,-598 806.5,-598 570.5,-598"/>
<polygon fill="none" stroke="#d95757" stroke-width="2" points="570,-555 570,-829 805,-829 805,-555 570,-555"/>
</g>
<!-- 3&#45;&gt;2 -->
<g id="edge8" class="edge">
<title>3&#45;&gt;2</title>
<path fill="none" stroke="grey" stroke-width="2" d="M652.78,-553.98C650.57,-545.26 648.34,-536.49 646.14,-527.81"/>
<polygon fill="grey" stroke="grey" stroke-width="2" points="649.52,-526.89 643.67,-518.05 642.73,-528.61 649.52,-526.89"/>
</g>
<!-- 4 -->
<g id="node5" class="node">
<title>4</title>
<text text-anchor="start" x="519.5" y="-1139.6" font-family="sans" font-weight="bold" font-size="18.00">__ase_idpp_generate_idpp_images</text>
<text text-anchor="start" x="519.5" y="-1115.8" font-family="sans" font-size="10.00"> </text>
<text text-anchor="start" x="522.5" y="-1115.8" font-family="sans" font-weight="bold" font-size="14.00">↪ input</text>
<text text-anchor="start" x="577.5" y="-1115.8" font-family="sans" font-size="10.00"> </text>
<text text-anchor="start" x="519.5" y="-1096" font-family="monospace" font-size="10.00">results/01_endpoints/{system}/product.con</text>
<text text-anchor="start" x="519.5" y="-1078" font-family="monospace" font-size="10.00">results/01_endpoints/{system}/reactant.con</text>
<text text-anchor="start" x="747.5" y="-1057.8" font-family="sans" font-size="10.00"> </text>
<text text-anchor="start" x="750.5" y="-1057.8" font-family="sans" font-weight="bold" font-size="14.00">output →</text>
<text text-anchor="start" x="814.5" y="-1057.8" font-family="sans" font-size="10.00"> </text>
<text text-anchor="start" x="519.5" y="-1038" font-family="monospace" font-size="10.00">results/02_idpp/{system}/path/00.con</text>
<text text-anchor="start" x="519.5" y="-1020" font-family="monospace" font-size="10.00">results/02_idpp/{system}/path/01.con</text>
<text text-anchor="start" x="519.5" y="-1002" font-family="monospace" font-size="10.00">results/02_idpp/{system}/path/02.con</text>
<text text-anchor="start" x="519.5" y="-984" font-family="monospace" font-size="10.00">results/02_idpp/{system}/path/03.con</text>
<text text-anchor="start" x="519.5" y="-966" font-family="monospace" font-size="10.00">results/02_idpp/{system}/path/04.con</text>
<text text-anchor="start" x="519.5" y="-948" font-family="monospace" font-size="10.00">results/02_idpp/{system}/path/05.con</text>
<text text-anchor="start" x="519.5" y="-930" font-family="monospace" font-size="10.00">results/02_idpp/{system}/path/06.con</text>
<text text-anchor="start" x="519.5" y="-912" font-family="monospace" font-size="10.00">results/02_idpp/{system}/path/07.con</text>
<text text-anchor="start" x="519.5" y="-894" font-family="monospace" font-size="10.00">results/02_idpp/{system}/path/08.con</text>
<text text-anchor="start" x="519.5" y="-876" font-family="monospace" font-size="10.00">results/02_idpp/{system}/path/09.con</text>
<polygon fill="#d97957" stroke="#d97957" points="513.5,-1130 513.5,-1130 824.5,-1130 824.5,-1130 513.5,-1130"/>
<polygon fill="#d97957" stroke="#d97957" points="513.5,-1072 513.5,-1072 824.5,-1072 824.5,-1072 513.5,-1072"/>
<polygon fill="none" stroke="#d97957" stroke-width="2" points="513.5,-867 513.5,-1159 823.5,-1159 823.5,-867 513.5,-867"/>
</g>
<!-- 4&#45;&gt;2 -->
<g id="edge6" class="edge">
<title>4&#45;&gt;2</title>
<path fill="none" stroke="grey" stroke-width="2" d="M573.17,-865.96C568.14,-854.1 563.81,-842.05 560.5,-830 528.04,-711.71 540.38,-675.01 560.5,-554 561.92,-545.44 563.76,-536.72 565.89,-527.99"/>
<polygon fill="grey" stroke="grey" stroke-width="2" points="569.32,-528.71 568.42,-518.15 562.54,-526.97 569.32,-528.71"/>
</g>
<!-- 4&#45;&gt;3 -->
<g id="edge10" class="edge">
<title>4&#45;&gt;3</title>
<path fill="none" stroke="grey" stroke-width="2" d="M677.22,-865.57C677.72,-857.19 678.22,-848.75 678.72,-840.37"/>
<polygon fill="grey" stroke="grey" stroke-width="2" points="682.23,-840.36 679.33,-830.16 675.24,-839.94 682.23,-840.36"/>
</g>
<!-- 5 -->
<g id="node6" class="node">
<title>5</title>
<text text-anchor="start" x="437.5" y="-1325.6" font-family="sans" font-weight="bold" font-size="18.00">__ira_align_prepare_endpoints_post</text>
<text text-anchor="start" x="436.5" y="-1301.8" font-family="sans" font-size="10.00"> </text>
<text text-anchor="start" x="439.5" y="-1301.8" font-family="sans" font-weight="bold" font-size="14.00">↪ input</text>
<text text-anchor="start" x="494.5" y="-1301.8" font-family="sans" font-size="10.00"> </text>
<text text-anchor="start" x="436.5" y="-1282" font-family="monospace" font-size="10.00">results/01_endpoints/{system}/product_minimized.con</text>
<text text-anchor="start" x="436.5" y="-1264" font-family="monospace" font-size="10.00">results/01_endpoints/{system}/reactant_minimized.con</text>
<text text-anchor="start" x="679.5" y="-1243.8" font-family="sans" font-size="10.00"> </text>
<text text-anchor="start" x="682.5" y="-1243.8" font-family="sans" font-weight="bold" font-size="14.00">output →</text>
<text text-anchor="start" x="746.5" y="-1243.8" font-family="sans" font-size="10.00"> </text>
<text text-anchor="start" x="436.5" y="-1224" font-family="monospace" font-size="10.00">results/01_endpoints/{system}/product.con</text>
<text text-anchor="start" x="436.5" y="-1206" font-family="monospace" font-size="10.00">results/01_endpoints/{system}/reactant.con</text>
<polygon fill="#d99c57" stroke="#d99c57" points="430.5,-1316 430.5,-1316 756.5,-1316 756.5,-1316 430.5,-1316"/>
<polygon fill="#d99c57" stroke="#d99c57" points="430.5,-1258 430.5,-1258 756.5,-1258 756.5,-1258 430.5,-1258"/>
<polygon fill="none" stroke="#d99c57" stroke-width="2" points="430,-1197 430,-1345 755,-1345 755,-1197 430,-1197"/>
</g>
<!-- 5&#45;&gt;2 -->
<g id="edge9" class="edge">
<title>5&#45;&gt;2</title>
<path fill="none" stroke="grey" stroke-width="2" d="M521.98,-1195.98C514.44,-1184.63 507.93,-1172.51 503.5,-1160 413.51,-905.72 461.12,-812.99 536.5,-554 539.03,-545.31 542.03,-536.53 545.35,-527.78"/>
<polygon fill="grey" stroke="grey" stroke-width="2" points="548.67,-528.9 549.08,-518.32 542.16,-526.34 548.67,-528.9"/>
</g>
<!-- 5&#45;&gt;4 -->
<g id="edge11" class="edge">
<title>5&#45;&gt;4</title>
<path fill="none" stroke="grey" stroke-width="2" d="M614.48,-1195.95C616.96,-1187.6 619.55,-1178.88 622.2,-1169.96"/>
<polygon fill="grey" stroke="grey" stroke-width="2" points="625.6,-1170.81 625.09,-1160.22 618.89,-1168.81 625.6,-1170.81"/>
</g>
<!-- 6 -->
<g id="node7" class="node">
<title>6</title>
<text text-anchor="start" x="518" y="-1511.6" font-family="sans" font-weight="bold" font-size="18.00">do_minimization</text>
<text text-anchor="start" x="424.5" y="-1487.8" font-family="sans" font-size="10.00"> </text>
<text text-anchor="start" x="427.5" y="-1487.8" font-family="sans" font-weight="bold" font-size="14.00">↪ input</text>
<text text-anchor="start" x="482.5" y="-1487.8" font-family="sans" font-size="10.00"> </text>
<text text-anchor="start" x="424.5" y="-1468" font-family="monospace" font-size="10.00">resources/config_minim.ini</text>
<text text-anchor="start" x="424.5" y="-1450" font-family="monospace" font-size="10.00">results/00_models/pet&#45;mad&#45;v1.1.0.pt</text>
<text text-anchor="start" x="424.5" y="-1432" font-family="monospace" font-size="10.00">results/01_endpoints/{system}/{endpoint}_pre_aligned.con</text>
<text text-anchor="start" x="691.5" y="-1411.8" font-family="sans" font-size="10.00"> </text>
<text text-anchor="start" x="694.5" y="-1411.8" font-family="sans" font-weight="bold" font-size="14.00">output →</text>
<text text-anchor="start" x="758.5" y="-1411.8" font-family="sans" font-size="10.00"> </text>
<text text-anchor="start" x="424.5" y="-1392" font-family="monospace" font-size="10.00">results/01_endpoints/{system}/{endpoint}_minimized.con</text>
<polygon fill="#68d957" stroke="#68d957" points="418.5,-1502 418.5,-1502 768.5,-1502 768.5,-1502 418.5,-1502"/>
<polygon fill="#68d957" stroke="#68d957" points="418.5,-1426 418.5,-1426 768.5,-1426 768.5,-1426 418.5,-1426"/>
<polygon fill="none" stroke="#68d957" stroke-width="2" points="418,-1383 418,-1531 767,-1531 767,-1383 418,-1383"/>
</g>
<!-- 6&#45;&gt;5 -->
<g id="edge12" class="edge">
<title>6&#45;&gt;5</title>
<path fill="none" stroke="grey" stroke-width="2" d="M592.5,-1381.96C592.5,-1373.49 592.5,-1364.81 592.5,-1356.22"/>
<polygon fill="grey" stroke="grey" stroke-width="2" points="596,-1356.19 592.5,-1346.19 589,-1356.19 596,-1356.19"/>
</g>
<!-- 7 -->
<g id="node8" class="node">
<title>7</title>
<text text-anchor="start" x="387.5" y="-1697.6" font-family="sans" font-weight="bold" font-size="18.00">__ira_align_prepare_endpoints_pre</text>
<text text-anchor="start" x="375.5" y="-1673.8" font-family="sans" font-size="10.00"> </text>
<text text-anchor="start" x="378.5" y="-1673.8" font-family="sans" font-weight="bold" font-size="14.00">↪ input</text>
<text text-anchor="start" x="433.5" y="-1673.8" font-family="sans" font-size="10.00"> </text>
<text text-anchor="start" x="375.5" y="-1654" font-family="monospace" font-size="10.00">&lt;input function&gt;</text>
<text text-anchor="start" x="375.5" y="-1636" font-family="monospace" font-size="10.00">&lt;input function&gt;</text>
<text text-anchor="start" x="630.5" y="-1615.8" font-family="sans" font-size="10.00"> </text>
<text text-anchor="start" x="633.5" y="-1615.8" font-family="sans" font-weight="bold" font-size="14.00">output →</text>
<text text-anchor="start" x="697.5" y="-1615.8" font-family="sans" font-size="10.00"> </text>
<text text-anchor="start" x="375.5" y="-1596" font-family="monospace" font-size="10.00">results/01_endpoints/{system}/product_pre_aligned.con</text>
<text text-anchor="start" x="375.5" y="-1578" font-family="monospace" font-size="10.00">results/01_endpoints/{system}/reactant_pre_aligned.con</text>
<polygon fill="#d9bf57" stroke="#d9bf57" points="369.5,-1688 369.5,-1688 707.5,-1688 707.5,-1688 369.5,-1688"/>
<polygon fill="#d9bf57" stroke="#d9bf57" points="369.5,-1630 369.5,-1630 707.5,-1630 707.5,-1630 369.5,-1630"/>
<polygon fill="none" stroke="#d9bf57" stroke-width="2" points="369,-1569 369,-1717 706,-1717 706,-1569 369,-1569"/>
</g>
<!-- 7&#45;&gt;6 -->
<g id="edge14" class="edge">
<title>7&#45;&gt;6</title>
<path fill="none" stroke="grey" stroke-width="2" d="M559.63,-1567.96C562.19,-1559.39 564.82,-1550.62 567.41,-1541.94"/>
<polygon fill="grey" stroke="grey" stroke-width="2" points="570.81,-1542.78 570.32,-1532.19 564.11,-1540.77 570.81,-1542.78"/>
</g>
<!-- 8 -->
<g id="node9" class="node">
<title>8</title>
<text text-anchor="start" x="768.5" y="-1679.6" font-family="sans" font-weight="bold" font-size="18.00">convert_ckpt_to_pt</text>
<text text-anchor="start" x="732.5" y="-1655.8" font-family="sans" font-size="10.00"> </text>
<text text-anchor="start" x="735.5" y="-1655.8" font-family="sans" font-weight="bold" font-size="14.00">↪ input</text>
<text text-anchor="start" x="790.5" y="-1655.8" font-family="sans" font-size="10.00"> </text>
<text text-anchor="start" x="732.5" y="-1636" font-family="monospace" font-size="10.00">results/00_models/pet&#45;mad&#45;{version}.ckpt</text>
<text text-anchor="start" x="903.5" y="-1615.8" font-family="sans" font-size="10.00"> </text>
<text text-anchor="start" x="906.5" y="-1615.8" font-family="sans" font-weight="bold" font-size="14.00">output →</text>
<text text-anchor="start" x="970.5" y="-1615.8" font-family="sans" font-size="10.00"> </text>
<text text-anchor="start" x="732.5" y="-1596" font-family="monospace" font-size="10.00">results/00_models/pet&#45;mad&#45;{version}.pt</text>
<polygon fill="#8bd957" stroke="#8bd957" points="726.5,-1670 726.5,-1670 980.5,-1670 980.5,-1670 726.5,-1670"/>
<polygon fill="#8bd957" stroke="#8bd957" points="726.5,-1630 726.5,-1630 980.5,-1630 980.5,-1630 726.5,-1630"/>
<polygon fill="none" stroke="#8bd957" stroke-width="2" points="726,-1587 726,-1699 979,-1699 979,-1587 726,-1587"/>
</g>
<!-- 8&#45;&gt;2 -->
<g id="edge7" class="edge">
<title>8&#45;&gt;2</title>
<path fill="none" stroke="grey" stroke-width="2" d="M852.5,-1585.9C852.5,-1513.41 852.5,-1383.29 852.5,-1272 852.5,-1272 852.5,-1272 852.5,-1012 852.5,-807.78 913.13,-733.37 815.5,-554 801.94,-529.08 782.48,-506.91 760.93,-487.69"/>
<polygon fill="grey" stroke="grey" stroke-width="2" points="763.08,-484.91 753.23,-481.01 758.49,-490.2 763.08,-484.91"/>
</g>
<!-- 8&#45;&gt;6 -->
<g id="edge13" class="edge">
<title>8&#45;&gt;6</title>
<path fill="none" stroke="grey" stroke-width="2" d="M773.08,-1585.79C751.8,-1570.73 728.37,-1554.16 705.65,-1538.08"/>
<polygon fill="grey" stroke="grey" stroke-width="2" points="707.5,-1535.1 697.32,-1532.18 703.46,-1540.81 707.5,-1535.1"/>
</g>
<!-- 9 -->
<g id="node10" class="node">
<title>9</title>
<text text-anchor="start" x="785.5" y="-1825.6" font-family="sans" font-weight="bold" font-size="18.00">download_ckpt</text>
<text text-anchor="start" x="732.5" y="-1804" font-family="sans" font-size="10.00"> &#160;</text>
<text text-anchor="start" x="903.5" y="-1783.8" font-family="sans" font-size="10.00"> </text>
<text text-anchor="start" x="906.5" y="-1783.8" font-family="sans" font-weight="bold" font-size="14.00">output →</text>
<text text-anchor="start" x="970.5" y="-1783.8" font-family="sans" font-size="10.00"> </text>
<text text-anchor="start" x="732.5" y="-1764" font-family="monospace" font-size="10.00">results/00_models/pet&#45;mad&#45;{version}.ckpt</text>
<polygon fill="#57d98b" stroke="#57d98b" points="726.5,-1816 726.5,-1816 980.5,-1816 980.5,-1816 726.5,-1816"/>
<polygon fill="#57d98b" stroke="#57d98b" points="726.5,-1798 726.5,-1798 980.5,-1798 980.5,-1798 726.5,-1798"/>
<polygon fill="none" stroke="#57d98b" stroke-width="2" points="726,-1755 726,-1845 979,-1845 979,-1755 726,-1755"/>
</g>
<!-- 9&#45;&gt;8 -->
<g id="edge15" class="edge">
<title>9&#45;&gt;8</title>
<path fill="none" stroke="grey" stroke-width="2" d="M852.5,-1753.75C852.5,-1740.1 852.5,-1724.83 852.5,-1710.11"/>
<polygon fill="grey" stroke="grey" stroke-width="2" points="856,-1710.04 852.5,-1700.04 849,-1710.04 856,-1710.04"/>
</g>
<!-- 10&#45;&gt;0 -->
<g id="edge4" class="edge">
<title>10&#45;&gt;0</title>
<path fill="none" stroke="grey" stroke-width="2" d="M521.4,-127.88C532.23,-118.37 543.44,-108.52 554.15,-99.12"/>
<polygon fill="grey" stroke="grey" stroke-width="2" points="556.65,-101.59 561.85,-92.36 552.03,-96.33 556.65,-101.59"/>
</g>
<!-- 11&#45;&gt;0 -->
<g id="edge3" class="edge">
<title>11&#45;&gt;0</title>
<path fill="none" stroke="grey" stroke-width="2" d="M705.6,-127.88C694.77,-118.37 683.56,-108.52 672.85,-99.12"/>
<polygon fill="grey" stroke="grey" stroke-width="2" points="674.97,-96.33 665.15,-92.36 670.35,-101.59 674.97,-96.33"/>
</g>
<!-- 12&#45;&gt;0 -->
<g id="edge1" class="edge">
<title>12&#45;&gt;0</title>
<path fill="none" stroke="grey" stroke-width="2" d="M932.71,-130.59C929.96,-129.71 927.22,-128.85 924.5,-128 840.68,-101.91 742.42,-77.29 679.13,-62.19"/>
<polygon fill="grey" stroke="grey" stroke-width="2" points="679.82,-58.76 669.28,-59.85 678.2,-65.57 679.82,-58.76"/>
</g>
</g>
</svg>
