<?xml version="1.0" encoding="UTF-8" standalone="no"?>
<!DOCTYPE svg PUBLIC "-//W3C//DTD SVG 1.1//EN"
 "http://www.w3.org/Graphics/SVG/1.1/DTD/svg11.dtd">
<!-- Generated by graphviz version 2.43.0 (0)
 -->
<!-- Title: snakemake_dag Pages: 1 -->
<svg width="469pt" height="620pt"
 viewBox="0.00 0.00 468.50 620.00" xmlns="http://www.w3.org/2000/svg" xmlns:xlink="http://www.w3.org/1999/xlink">
<g id="graph0" class="graph" transform="scale(1 1) rotate(0) translate(4 616)">
<title>snakemake_dag</title>
<polygon fill="white" stroke="transparent" points="-4,4 -4,-616 464.5,-616 464.5,4 -4,4"/>
<!-- 0 -->
<g id="node1" class="node">
<title>0</title>
<path fill="none" stroke="#ced856" stroke-width="2" d="M243.5,-36C243.5,-36 213.5,-36 213.5,-36 207.5,-36 201.5,-30 201.5,-24 201.5,-24 201.5,-12 201.5,-12 201.5,-6 207.5,0 213.5,0 213.5,0 243.5,0 243.5,0 249.5,0 255.5,-6 255.5,-12 255.5,-12 255.5,-24 255.5,-24 255.5,-30 249.5,-36 243.5,-36"/>
<text text-anchor="middle" x="228.5" y="-15.5" font-family="sans" font-size="10.00">all</text>
</g>
<!-- 1 -->
<g id="node2" class="node">
<title>1</title>
<path fill="none" stroke="#56c1d8" stroke-width="2" d="M87,-108C87,-108 12,-108 12,-108 6,-108 0,-102 0,-96 0,-96 0,-84 0,-84 0,-78 6,-72 12,-72 12,-72 87,-72 87,-72 93,-72 99,-78 99,-84 99,-84 99,-96 99,-96 99,-102 93,-108 87,-108"/>
<text text-anchor="middle" x="49.5" y="-87.5" font-family="sans" font-size="10.00">plot_neb_1d_path</text>
</g>
<!-- 1&#45;&gt;0 -->
<g id="edge1" class="edge">
<title>1&#45;&gt;0</title>
<path fill="none" stroke="grey" stroke-width="2" d="M93.29,-71.88C123.47,-60.07 163.14,-44.56 191.69,-33.4"/>
<polygon fill="grey" stroke="grey" stroke-width="2" points="193.25,-36.54 201.29,-29.64 190.7,-30.02 193.25,-36.54"/>
</g>
<!-- 2 -->
<g id="node3" class="node">
<title>2</title>
<path fill="none" stroke="#56d86b" stroke-width="2" d="M243.5,-180C243.5,-180 213.5,-180 213.5,-180 207.5,-180 201.5,-174 201.5,-168 201.5,-168 201.5,-156 201.5,-156 201.5,-150 207.5,-144 213.5,-144 213.5,-144 243.5,-144 243.5,-144 249.5,-144 255.5,-150 255.5,-156 255.5,-156 255.5,-168 255.5,-168 255.5,-174 249.5,-180 243.5,-180"/>
<text text-anchor="middle" x="228.5" y="-159.5" font-family="sans" font-size="10.00">do_neb</text>
</g>
<!-- 2&#45;&gt;1 -->
<g id="edge5" class="edge">
<title>2&#45;&gt;1</title>
<path fill="none" stroke="grey" stroke-width="2" d="M201.31,-150.37C175.14,-140.13 134.86,-124.38 102.37,-111.67"/>
<polygon fill="grey" stroke="grey" stroke-width="2" points="103.58,-108.39 92.99,-108.01 101.03,-114.91 103.58,-108.39"/>
</g>
<!-- 10 -->
<g id="node11" class="node">
<title>10</title>
<path fill="none" stroke="#56d8d0" stroke-width="2" d="M208,-108C208,-108 129,-108 129,-108 123,-108 117,-102 117,-96 117,-96 117,-84 117,-84 117,-78 123,-72 129,-72 129,-72 208,-72 208,-72 214,-72 220,-78 220,-84 220,-84 220,-96 220,-96 220,-102 214,-108 208,-108"/>
<text text-anchor="middle" x="168.5" y="-87.5" font-family="sans" font-size="10.00">plot_neb_1d_index</text>
</g>
<!-- 2&#45;&gt;10 -->
<g id="edge16" class="edge">
<title>2&#45;&gt;10</title>
<path fill="none" stroke="grey" stroke-width="2" d="M213.67,-143.7C206.48,-135.3 197.7,-125.07 189.81,-115.86"/>
<polygon fill="grey" stroke="grey" stroke-width="2" points="192.33,-113.42 183.16,-108.1 187.01,-117.97 192.33,-113.42"/>
</g>
<!-- 11 -->
<g id="node12" class="node">
<title>11</title>
<path fill="none" stroke="#569ad8" stroke-width="2" d="M328.5,-108C328.5,-108 250.5,-108 250.5,-108 244.5,-108 238.5,-102 238.5,-96 238.5,-96 238.5,-84 238.5,-84 238.5,-78 244.5,-72 250.5,-72 250.5,-72 328.5,-72 328.5,-72 334.5,-72 340.5,-78 340.5,-84 340.5,-84 340.5,-96 340.5,-96 340.5,-102 334.5,-108 328.5,-108"/>
<text text-anchor="middle" x="289.5" y="-87.5" font-family="sans" font-size="10.00">plot_neb_1d_rmsd</text>
</g>
<!-- 2&#45;&gt;11 -->
<g id="edge17" class="edge">
<title>2&#45;&gt;11</title>
<path fill="none" stroke="grey" stroke-width="2" d="M243.58,-143.7C250.89,-135.3 259.81,-125.07 267.84,-115.86"/>
<polygon fill="grey" stroke="grey" stroke-width="2" points="270.66,-117.94 274.59,-108.1 265.39,-113.34 270.66,-117.94"/>
</g>
<!-- 12 -->
<g id="node13" class="node">
<title>12</title>
<path fill="none" stroke="#567bd8" stroke-width="2" d="M448.5,-108C448.5,-108 370.5,-108 370.5,-108 364.5,-108 358.5,-102 358.5,-96 358.5,-96 358.5,-84 358.5,-84 358.5,-78 364.5,-72 370.5,-72 370.5,-72 448.5,-72 448.5,-72 454.5,-72 460.5,-78 460.5,-84 460.5,-84 460.5,-96 460.5,-96 460.5,-102 454.5,-108 448.5,-108"/>
<text text-anchor="middle" x="409.5" y="-87.5" font-family="sans" font-size="10.00">plot_neb_2d_rmsd</text>
</g>
<!-- 2&#45;&gt;12 -->
<g id="edge18" class="edge">
<title>2&#45;&gt;12</title>
<path fill="none" stroke="grey" stroke-width="2" d="M255.6,-150.52C281.99,-140.31 322.83,-124.52 355.81,-111.76"/>
<polygon fill="grey" stroke="grey" stroke-width="2" points="357.26,-114.96 365.33,-108.08 354.74,-108.43 357.26,-114.96"/>
</g>
<!-- 3 -->
<g id="node4" class="node">
<title>3</title>
<path fill="none" stroke="#d85656" stroke-width="2" d="M328.5,-252C328.5,-252 222.5,-252 222.5,-252 216.5,-252 210.5,-246 210.5,-240 210.5,-240 210.5,-228 210.5,-228 210.5,-222 216.5,-216 222.5,-216 222.5,-216 328.5,-216 328.5,-216 334.5,-216 340.5,-222 340.5,-228 340.5,-228 340.5,-240 340.5,-240 340.5,-246 334.5,-252 328.5,-252"/>
<text text-anchor="middle" x="275.5" y="-231.5" font-family="sans" font-size="10.00">__ase_idpp_collect_paths</text>
</g>
<!-- 3&#45;&gt;2 -->
<g id="edge8" class="edge">
<title>3&#45;&gt;2</title>
<path fill="none" stroke="grey" stroke-width="2" d="M263.88,-215.7C258.36,-207.47 251.65,-197.48 245.57,-188.42"/>
<polygon fill="grey" stroke="grey" stroke-width="2" points="248.46,-186.46 239.98,-180.1 242.65,-190.36 248.46,-186.46"/>
</g>
<!-- 4 -->
<g id="node5" class="node">
<title>4</title>
<path fill="none" stroke="#d87556" stroke-width="2" d="M332.5,-324C332.5,-324 180.5,-324 180.5,-324 174.5,-324 168.5,-318 168.5,-312 168.5,-312 168.5,-300 168.5,-300 168.5,-294 174.5,-288 180.5,-288 180.5,-288 332.5,-288 332.5,-288 338.5,-288 344.5,-294 344.5,-300 344.5,-300 344.5,-312 344.5,-312 344.5,-318 338.5,-324 332.5,-324"/>
<text text-anchor="middle" x="256.5" y="-303.5" font-family="sans" font-size="10.00">__ase_idpp_generate_idpp_images</text>
</g>
<!-- 4&#45;&gt;2 -->
<g id="edge7" class="edge">
<title>4&#45;&gt;2</title>
<path fill="none" stroke="grey" stroke-width="2" d="M231.12,-287.95C219.79,-278.79 207.62,-266.4 201.5,-252 192.73,-231.37 201.41,-206.95 211.19,-188.91"/>
<polygon fill="grey" stroke="grey" stroke-width="2" points="214.31,-190.51 216.32,-180.11 208.26,-186.99 214.31,-190.51"/>
</g>
<!-- 4&#45;&gt;3 -->
<g id="edge10" class="edge">
<title>4&#45;&gt;3</title>
<path fill="none" stroke="grey" stroke-width="2" d="M261.2,-287.7C263.31,-279.9 265.86,-270.51 268.22,-261.83"/>
<polygon fill="grey" stroke="grey" stroke-width="2" points="271.62,-262.67 270.86,-252.1 264.86,-260.84 271.62,-262.67"/>
</g>
<!-- 5 -->
<g id="node6" class="node">
<title>5</title>
<path fill="none" stroke="#d89c56" stroke-width="2" d="M311.5,-396C311.5,-396 155.5,-396 155.5,-396 149.5,-396 143.5,-390 143.5,-384 143.5,-384 143.5,-372 143.5,-372 143.5,-366 149.5,-360 155.5,-360 155.5,-360 311.5,-360 311.5,-360 317.5,-360 323.5,-366 323.5,-372 323.5,-372 323.5,-384 323.5,-384 323.5,-390 317.5,-396 311.5,-396"/>
<text text-anchor="middle" x="233.5" y="-375.5" font-family="sans" font-size="10.00">__ira_align_prepare_endpoints_post</text>
</g>
<!-- 5&#45;&gt;2 -->
<g id="edge6" class="edge">
<title>5&#45;&gt;2</title>
<path fill="none" stroke="grey" stroke-width="2" d="M196.11,-359.8C181.96,-351.2 167.37,-339.32 159.5,-324 135.41,-277.12 175.56,-219.93 204.02,-187.87"/>
<polygon fill="grey" stroke="grey" stroke-width="2" points="206.79,-190.02 210.95,-180.28 201.62,-185.3 206.79,-190.02"/>
</g>
<!-- 5&#45;&gt;4 -->
<g id="edge11" class="edge">
<title>5&#45;&gt;4</title>
<path fill="none" stroke="grey" stroke-width="2" d="M239.19,-359.7C241.75,-351.9 244.83,-342.51 247.68,-333.83"/>
<polygon fill="grey" stroke="grey" stroke-width="2" points="251.08,-334.7 250.88,-324.1 244.43,-332.51 251.08,-334.7"/>
</g>
<!-- 6 -->
<g id="node7" class="node">
<title>6</title>
<path fill="none" stroke="#68d856" stroke-width="2" d="M267.5,-468C267.5,-468 199.5,-468 199.5,-468 193.5,-468 187.5,-462 187.5,-456 187.5,-456 187.5,-444 187.5,-444 187.5,-438 193.5,-432 199.5,-432 199.5,-432 267.5,-432 267.5,-432 273.5,-432 279.5,-438 279.5,-444 279.5,-444 279.5,-456 279.5,-456 279.5,-462 273.5,-468 267.5,-468"/>
<text text-anchor="middle" x="233.5" y="-447.5" font-family="sans" font-size="10.00">do_minimization</text>
</g>
<!-- 6&#45;&gt;5 -->
<g id="edge12" class="edge">
<title>6&#45;&gt;5</title>
<path fill="none" stroke="grey" stroke-width="2" d="M233.5,-431.7C233.5,-423.98 233.5,-414.71 233.5,-406.11"/>
<polygon fill="grey" stroke="grey" stroke-width="2" points="237,-406.1 233.5,-396.1 230,-406.1 237,-406.1"/>
</g>
<!-- 7 -->
<g id="node8" class="node">
<title>7</title>
<path fill="none" stroke="#d8bc56" stroke-width="2" d="M289.5,-540C289.5,-540 137.5,-540 137.5,-540 131.5,-540 125.5,-534 125.5,-528 125.5,-528 125.5,-516 125.5,-516 125.5,-510 131.5,-504 137.5,-504 137.5,-504 289.5,-504 289.5,-504 295.5,-504 301.5,-510 301.5,-516 301.5,-516 301.5,-528 301.5,-528 301.5,-534 295.5,-540 289.5,-540"/>
<text text-anchor="middle" x="213.5" y="-519.5" font-family="sans" font-size="10.00">__ira_align_prepare_endpoints_pre</text>
</g>
<!-- 7&#45;&gt;6 -->
<g id="edge13" class="edge">
<title>7&#45;&gt;6</title>
<path fill="none" stroke="grey" stroke-width="2" d="M218.44,-503.7C220.67,-495.9 223.35,-486.51 225.83,-477.83"/>
<polygon fill="grey" stroke="grey" stroke-width="2" points="229.23,-478.68 228.61,-468.1 222.5,-476.76 229.23,-478.68"/>
</g>
<!-- 8 -->
<g id="node9" class="node">
<title>8</title>
<path fill="none" stroke="#88d856" stroke-width="2" d="M413,-540C413,-540 332,-540 332,-540 326,-540 320,-534 320,-528 320,-528 320,-516 320,-516 320,-510 326,-504 332,-504 332,-504 413,-504 413,-504 419,-504 425,-510 425,-516 425,-516 425,-528 425,-528 425,-534 419,-540 413,-540"/>
<text text-anchor="middle" x="372.5" y="-519.5" font-family="sans" font-size="10.00">convert_ckpt_to_pt</text>
</g>
<!-- 8&#45;&gt;2 -->
<g id="edge9" class="edge">
<title>8&#45;&gt;2</title>
<path fill="none" stroke="grey" stroke-width="2" d="M372.5,-503.95C372.5,-477.29 372.5,-424.11 372.5,-379 372.5,-379 372.5,-379 372.5,-305 372.5,-264.14 375.99,-247.1 349.5,-216 328.14,-190.92 292.65,-177.3 265.62,-170.17"/>
<polygon fill="grey" stroke="grey" stroke-width="2" points="266.26,-166.73 255.72,-167.75 264.6,-173.53 266.26,-166.73"/>
</g>
<!-- 8&#45;&gt;6 -->
<g id="edge14" class="edge">
<title>8&#45;&gt;6</title>
<path fill="none" stroke="grey" stroke-width="2" d="M338.5,-503.88C319.9,-494.51 296.67,-482.81 276.79,-472.8"/>
<polygon fill="grey" stroke="grey" stroke-width="2" points="278.14,-469.56 267.63,-468.19 274.99,-475.81 278.14,-469.56"/>
</g>
<!-- 9 -->
<g id="node10" class="node">
<title>9</title>
<path fill="none" stroke="#56d88a" stroke-width="2" d="M403.5,-612C403.5,-612 341.5,-612 341.5,-612 335.5,-612 329.5,-606 329.5,-600 329.5,-600 329.5,-588 329.5,-588 329.5,-582 335.5,-576 341.5,-576 341.5,-576 403.5,-576 403.5,-576 409.5,-576 415.5,-582 415.5,-588 415.5,-588 415.5,-600 415.5,-600 415.5,-606 409.5,-612 403.5,-612"/>
<text text-anchor="middle" x="372.5" y="-591.5" font-family="sans" font-size="10.00">download_ckpt</text>
</g>
<!-- 9&#45;&gt;8 -->
<g id="edge15" class="edge">
<title>9&#45;&gt;8</title>
<path fill="none" stroke="grey" stroke-width="2" d="M372.5,-575.7C372.5,-567.98 372.5,-558.71 372.5,-550.11"/>
<polygon fill="grey" stroke="grey" stroke-width="2" points="376,-550.1 372.5,-540.1 369,-550.1 376,-550.1"/>
</g>
<!-- 10&#45;&gt;0 -->
<g id="edge4" class="edge">
<title>10&#45;&gt;0</title>
<path fill="none" stroke="grey" stroke-width="2" d="M183.33,-71.7C190.52,-63.3 199.3,-53.07 207.19,-43.86"/>
<polygon fill="grey" stroke="grey" stroke-width="2" points="209.99,-45.97 213.84,-36.1 204.67,-41.42 209.99,-45.97"/>
</g>
<!-- 11&#45;&gt;0 -->
<g id="edge2" class="edge">
<title>11&#45;&gt;0</title>
<path fill="none" stroke="grey" stroke-width="2" d="M274.42,-71.7C267.11,-63.3 258.19,-53.07 250.16,-43.86"/>
<polygon fill="grey" stroke="grey" stroke-width="2" points="252.61,-41.34 243.41,-36.1 247.34,-45.94 252.61,-41.34"/>
</g>
<!-- 12&#45;&gt;0 -->
<g id="edge3" class="edge">
<title>12&#45;&gt;0</title>
<path fill="none" stroke="grey" stroke-width="2" d="M365.22,-71.88C334.48,-59.98 294,-44.33 265.08,-33.15"/>
<polygon fill="grey" stroke="grey" stroke-width="2" points="266.34,-29.88 255.75,-29.54 263.81,-36.41 266.34,-29.88"/>
</g>
</g>
</svg>
